<svg width="52" height="52" viewBox="0 0 52 52" fill="none" xmlns="http://www.w3.org/2000/svg">
<circle cx="26" cy="26" r="26" fill="#105720"/>
<path d="M30 17H15V30H30V17Z" stroke="white" stroke-width="1.5" stroke-linecap="round" stroke-linejoin="round"/>
<path d="M30 22H34L37 25V30H30V22Z" stroke="white" stroke-width="1.5" stroke-linecap="round" stroke-linejoin="round"/>
<path d="M19.5 35C20.8807 35 22 33.8807 22 32.5C22 31.1193 20.8807 30 19.5 30C18.1193 30 17 31.1193 17 32.5C17 33.8807 18.1193 35 19.5 35Z" stroke="white" stroke-width="1.5" stroke-linecap="round" stroke-linejoin="round"/>
<path d="M32.5 35C33.8807 35 35 33.8807 35 32.5C35 31.1193 33.8807 30 32.5 30C31.1193 30 30 31.1193 30 32.5C30 33.8807 31.1193 35 32.5 35Z" stroke="white" stroke-width="1.5" stroke-linecap="round" stroke-linejoin="round"/>
</svg>
